<?xml version="1.0" encoding="UTF-8" ?>
<!DOCTYPE svg PUBLIC "-//W3C//DTD SVG 1.1//EN" "http://www.w3.org/Graphics/SVG/1.1/DTD/svg11.dtd">
<svg width="1000pt" height="1000pt" viewBox="0 0 1000 1000" version="1.1" xmlns="http://www.w3.org/2000/svg">
<g id="#000000ff">
<path fill="#000000" opacity="1.00" d=" M 0.00 0.00 L 1000.00 0.00 L 1000.00 1000.00 L 0.00 1000.00 L 0.00 0.00 M 466.47 202.72 C 459.63 204.37 453.50 208.68 449.61 214.54 C 443.26 223.84 443.31 236.97 449.77 246.21 C 455.05 254.12 464.49 258.86 473.97 258.62 C 567.32 258.63 660.68 258.63 754.04 258.62 C 762.09 258.81 770.19 255.57 775.66 249.61 C 784.71 240.28 785.69 224.45 778.13 213.94 C 772.96 206.54 764.09 201.81 755.03 201.99 C 663.37 202.02 571.72 201.99 480.06 202.00 C 475.53 202.05 470.92 201.65 466.47 202.72 M 328.24 332.31 C 313.92 333.77 302.39 347.56 303.50 361.91 C 303.91 376.19 316.64 388.66 330.93 388.71 C 411.95 388.81 492.97 388.72 573.99 388.76 C 580.91 388.96 587.91 386.71 593.23 382.23 C 601.53 375.49 605.31 363.85 602.62 353.51 C 599.73 341.16 587.73 331.81 575.03 332.08 C 509.03 332.03 443.03 332.07 377.03 332.06 C 360.77 332.22 344.49 331.73 328.24 332.31 M 197.45 467.69 C 185.69 468.82 175.13 478.23 173.02 489.91 C 172.41 495.93 172.18 502.39 175.01 507.94 C 178.74 515.93 186.41 521.95 195.08 523.61 C 199.01 524.34 203.04 524.19 207.03 524.19 C 302.36 524.16 397.68 524.22 493.01 524.17 C 505.94 524.40 518.07 514.67 520.76 502.05 C 523.65 490.39 517.97 477.38 507.58 471.43 C 502.92 468.62 497.45 467.37 492.05 467.49 C 434.36 467.51 376.68 467.49 319.00 467.50 C 278.49 467.63 237.96 467.24 197.45 467.69 M 326.25 599.22 C 314.34 601.41 304.64 612.04 303.61 624.12 C 302.21 635.93 309.20 648.06 320.08 652.81 C 325.95 655.68 332.63 655.44 338.99 655.38 C 417.33 655.37 495.66 655.38 574.00 655.38 C 581.06 655.53 588.20 653.24 593.56 648.58 C 601.70 641.80 605.28 630.25 602.60 620.03 C 599.68 607.71 587.67 598.38 574.99 598.69 C 494.31 598.67 413.63 598.71 332.95 598.67 C 330.70 598.69 328.46 598.80 326.25 599.22 M 466.36 731.46 C 453.69 734.37 444.17 746.93 444.89 759.94 C 445.04 773.81 456.98 786.65 470.98 787.02 C 566.33 787.04 661.67 787.03 757.02 787.03 C 771.33 786.74 783.83 773.27 783.09 758.97 C 783.63 747.85 776.28 737.20 766.16 732.93 C 760.80 730.46 754.81 730.52 749.05 730.62 C 657.37 730.63 565.70 730.62 474.02 730.62 C 471.45 730.65 468.86 730.84 466.36 731.46 Z" />
</g>
<g id="#e60028ff">
<path fill="#e60028" opacity="1.00" d=" M 466.47 202.72 C 470.92 201.65 475.53 202.05 480.06 202.00 C 571.72 201.99 663.37 202.02 755.03 201.99 C 764.09 201.81 772.96 206.54 778.13 213.94 C 785.69 224.45 784.71 240.28 775.66 249.61 C 770.19 255.57 762.09 258.81 754.04 258.62 C 660.68 258.63 567.32 258.63 473.97 258.62 C 464.49 258.86 455.05 254.12 449.77 246.21 C 443.31 236.97 443.26 223.84 449.61 214.54 C 453.50 208.68 459.63 204.37 466.47 202.72 Z" />
<path fill="#e60028" opacity="1.00" d=" M 328.24 332.31 C 344.49 331.73 360.77 332.22 377.03 332.06 C 443.03 332.07 509.03 332.03 575.03 332.08 C 587.73 331.81 599.73 341.16 602.62 353.51 C 605.31 363.85 601.53 375.49 593.23 382.23 C 587.91 386.71 580.91 388.96 573.99 388.76 C 492.97 388.72 411.95 388.81 330.93 388.71 C 316.64 388.66 303.91 376.19 303.50 361.91 C 302.39 347.56 313.92 333.77 328.24 332.31 Z" />
</g>
<g id="#009f52ff">
<path fill="#009f52" opacity="1.00" d=" M 197.45 467.69 C 237.96 467.24 278.49 467.63 319.00 467.50 C 376.68 467.49 434.36 467.51 492.05 467.49 C 497.45 467.37 502.92 468.62 507.58 471.43 C 517.97 477.38 523.65 490.39 520.76 502.05 C 518.07 514.67 505.94 524.40 493.01 524.17 C 397.68 524.22 302.36 524.16 207.03 524.19 C 203.04 524.19 199.01 524.34 195.08 523.61 C 186.41 521.95 178.74 515.93 175.01 507.94 C 172.18 502.39 172.41 495.93 173.02 489.91 C 175.13 478.23 185.69 468.82 197.45 467.69 Z" />
<path fill="#009f52" opacity="1.00" d=" M 326.25 599.22 C 328.46 598.80 330.70 598.69 332.95 598.67 C 413.63 598.71 494.31 598.67 574.99 598.69 C 587.67 598.38 599.68 607.71 602.60 620.03 C 605.28 630.25 601.70 641.80 593.56 648.58 C 588.20 653.24 581.06 655.53 574.00 655.38 C 495.66 655.38 417.33 655.37 338.99 655.38 C 332.63 655.44 325.95 655.68 320.08 652.81 C 309.20 648.06 302.21 635.93 303.61 624.12 C 304.64 612.04 314.34 601.41 326.25 599.22 Z" />
<path fill="#009f52" opacity="1.00" d=" M 466.36 731.46 C 468.86 730.84 471.45 730.65 474.02 730.62 C 565.70 730.62 657.37 730.63 749.05 730.62 C 754.81 730.52 760.80 730.46 766.16 732.93 C 776.28 737.20 783.63 747.85 783.09 758.97 C 783.83 773.27 771.33 786.74 757.02 787.03 C 661.67 787.03 566.33 787.04 470.98 787.02 C 456.98 786.65 445.04 773.81 444.89 759.94 C 444.17 746.93 453.69 734.37 466.36 731.46 Z" />
</g>
</svg>
